<svg viewBox="0 0 1646 1951" xmlns="http://www.w3.org/2000/svg">
  <defs>
    <radialGradient cx="5.248107%" cy="95.125299%" fx="5.248107%" fy="95.125299%" r="96.474%" gradientTransform="matrix(1 0 0 .84364 0 .148743)" id="a">
      <stop stop-color="#F5B635" offset="0%"/>
      <stop stop-color="#F6EB2B" offset="100%"/>
    </radialGradient>
  </defs>
  <path d="M272.170213 1991.48936c-146.382979-1.40425-263.957447-123.78723-262.553192-273.3617 1.234043-135.44681 100.212766-249.14894 231.787234-266.17021 60.20417-7.21693 121.033858 6.89134 171.914894 39.87234 15.234042 9.78723 32.851064 14.89361 50.893617 14.89361 28.332725-.18676 55.34771-11.99122 74.732735-32.65517 19.385025-20.66396 29.441786-48.37706 27.820456-76.66397-10.042553-144.97873 93.659575-272.17022 235.021277-288.29788 59.639234-6.72831 119.765838 7.43859 170.12766 40.08511 15.319149 9.78723 33.063826 14.97872 51.191486 14.89362 18.72341 0 37.02128-5.23405 53.06383-15.10639l1.14894-.7234c31.80074-20.05228 50.21266-55.78444 48.08511-93.31915C1115.31915 908.553191 1221.10638 780.638298 1364 766.297872c8.51064-.851063 17.19149-1.276595 25.65957-1.276595 146.38298 1.446808 263.95745 123.829787 262.59575 273.404253-1.23404 135.44681-100.21277 249.14894-231.78723 266.17021-60.20417 7.21693-121.03386-6.89134-171.9149-39.87234-15.17657-9.76141-32.84889-14.93308-50.89362-14.89361-28.32121.23439-55.30996 12.06091-74.67907 32.7245-19.3691 20.66359-29.42733 48.36-27.83156 76.6372 1.10638 14.25532 1.10638 28.51064 0 42.76596-11.10639 128.51064-109.446812 231.19149-234.936174 245.3617-59.741091 6.82339-119.997411-7.31564-170.468085-40-15.237396-9.80084-32.989316-14.97417-51.106383-14.89362-18.723404 0-37.106383 5.2766-53.191489 15.14894l-1.106383.7234c-31.860968 20.0461-50.311533 55.82259-48.170213 93.40426.978723 14.38298.851064 28.85106-.340426 43.27659-11.06383 129.61702-111.106383 232.76596-237.87234 245.2766-8.680851.85106-17.19149 1.23404-25.829787 1.23404h.042553zm0-685.10638c-146.382979-2.34043-263.148936-125.53192-260.80851-275.10638 2.127659-134.21277 100.127659-246.638302 230.382978-264.170217 60.204169-7.216929 121.033857 6.891343 171.914893 39.87234 15.234043 9.787234 32.893617 14.893617 50.893617 14.851064 18.723405-.042553 37.148937-5.319149 53.19149-15.234042 32.525849-19.856882 51.493829-55.994155 49.361702-94.042554-10.12766-146.382978 95.659574-274.340425 238.553191-288.680851 8.553192-.851063 17.19149-1.234042 25.702128-1.234042C977.744681 424.042553 1095.2766 546.425532 1093.91489 696c-1.23404 135.489362-100.212762 249.148936-231.78723 266.170213-60.20417 7.216928-121.033858-6.891343-171.914894-39.872341-15.176574-9.761417-32.848892-14.933082-50.893617-14.893617-28.325308.198373-55.329122 12.007892-74.704848 32.670507-19.375726 20.662615-29.426779 48.36906-27.80579 76.648638 1.021276 14.46809.893617 28.93617-.340426 43.31915-11.06383 129.61702-111.06383 232.76596-237.87234 245.23405-8.638298.85106-17.404256 1.31914-25.957447 1.31914l-.425532-.17021-.042553-.04255zm263.914893-992.297874c11.353607-.01617 22.098567 5.131184 29.201207 13.988789 7.102639 8.857604 9.792239 20.464303 7.309432 31.543126-1.980539 9.56718-7.704407 17.945208-15.896938 23.268355-8.192531 5.323147-18.173453 7.149402-27.720084 5.072071l-52.382978 129.06383c7.567324 5.55122 12.370613 14.098316 13.177662 23.448669.807048 9.350354-2.460678 18.594076-8.964896 25.359841-5.818033 5.995201-13.816056 9.37857-22.170213 9.37857s-16.35218-3.383369-22.170213-9.37857c-.680851-.595744-.978723-1.489361-1.489362-2.212766-45.84804 37.51218-103.315005 57.911449-162.553191 57.702128-146.382979.042553-265.106383-121.148936-265.19149-270.723404-.138542-58.412201 18.592565-115.307004 53.404256-162.212766a36.765975 36.765975 0 0 1-3.702128-2.553192c-14.279127-14.723605-14.279127-38.127458 0-52.851064 7.855446-8.043692 19.014531-11.960868 30.174067-10.59201 11.159537 1.368859 21.041059 7.866933 26.71955 17.570734l118.595745-52.510638c-1.1385-5.017633-1.254279-10.213229-.340426-15.276596 1.599582-9.656695 7.00102-18.270119 14.997286-23.915483 7.996267-5.645364 17.920829-7.852096 27.555906-6.12707C294.685252 46.134904 307.776648 65.525348 304 85.61702l123.106383 47.276596c6.344017-11.289808 18.239735-18.326525 31.189298-18.449519 12.949564-.122995 24.976792 6.686503 31.534106 17.853774 10.639163 17.555841 5.354816 40.391773-11.914893 51.489362l51.361702 131.06383a36.084997 36.084997 0 0 1 6.80851-.723404v-.042554zM432.425532 178.808511a37.148924 37.148924 0 0 1-7.404255-11.148937l-49.276596 11.872341c.368373 8.338156-2.024854 16.564872-6.808511 23.404255l45.234043 48.085107c5.924583-3.9481 12.880467-6.064465 20-6.085107l10.765957-57.787234c-4.707222-1.875353-8.969073-4.716587-12.510638-8.340425zm69.957447 187.531915l-.085107-.297873c-3.715294-9.23163-3.700037-19.545359.042554-28.765957l-42.042554-28.510639c-12.777396 13.486066-33.718421 15.034522-48.340425 3.574469l-21.702128 20.085106c7.234043 11.87234 7.234043 26.893617 0 38.723404l22 20.382979c14.492629-11.669067 35.501592-10.320207 48.382979 3.106383l41.744681-28.297872zm-101.914894-69.489362l-.170213-.255319c-4.650006-11.848176-3.052139-25.238304 4.255319-35.659575l-45.276595-48.170213c-11.579669 7.746785-26.600043 8.078727-38.510639.851064l-21.361702 24.808511c9.903075 12.805651 10.502961 30.510863 1.489362 43.957447l37.659574 38.468085c12.905564-9.098254 30.260963-8.613273 42.638298 1.191489l21.787234-20.085106a36.765978 36.765978 0 0 1-2.553191-5.106383h.042553zM299.446809 98.978724l-.212766-.340426a37.446822 37.446822 0 0 1-4.680852 6.680851l29.361703 42.12766 1.276595-.680852c8.881009-3.744706 18.886719-3.803536 27.811147-.163518 8.924429 3.640017 16.034745 10.679981 19.763321 19.567774l49.276596-11.914894a39.149003 39.149003 0 0 1 .510638-8L299.446809 98.93617v.042553zm-31.148937 17.957446l-.170212-.255319a35.191477 35.191477 0 0 1-11.489362-2.425532l-28.085107 43.106383c13.638696 13.240311 15.349896 34.539292 4 49.787234l19.234043 21.787234c11.489362-7.234042 25.957447-7.234042 37.446809 0l21.361702-24.851064c-11.109304-14.628803-10.104283-35.124041 2.382978-48.595744l-29.361702-42.085107c-4.778614 2.306362-10.013104 3.513203-15.319149 3.531915zM238 100.553191l-119.148936 52.638298a38.297794 38.297794 0 0 1 .553191 6.936171l50.170213 10.638297c3.556597-9.049084 10.594939-16.292995 19.537914-20.108558 8.942975-3.815563 19.042869-3.883761 28.036554-.189314L244.808511 108A37.61699 37.61699 0 0 1 238 100.553191zm-129.148936 85.829788l-.170213-.255319c-3.402223 3.408723-7.453819 6.100141-11.914894 7.914893l10.042554 50.638298c7.489361-.12766 14.893617 2.12766 21.063829 6.425532l45.06383-46.042553c-4.083943-6.345857-6.160076-13.775448-5.957447-21.319149l-50.085106-9.702128c-1.828234 4.610123-4.563083 8.806453-8.042553 12.340426zM463.87234 512.085106l52.553192-128.340425a36.978721 36.978721 0 0 1-6.12766-5.106383l-41.702127 28.255319v.553192c7.635929 18.872688-1.109546 40.397113-19.744681 48.595744H448l11.06383 55.531915c1.574468.042553 3.191489.212766 4.80851.510638zm46.212766-186.382978l-.170212-.297873a35.744653 35.744653 0 0 1 6.297872-5.148936l-51.106383-130.978723a36.08523 36.08523 0 0 1-6.808511.680851l-10.723404 57.787234.893617.425532c18.721168 8.299911 27.378727 30.038325 19.489362 48.93617l42.127659 28.595745z" transform="translate(-7 -41)" fill="url(#a)" fill-rule="nonzero"/>
</svg>
